<mxfile host="app.diagrams.net" modified="2023-02-09T11:07:57.691Z" agent="5.0 (Windows NT 10.0; Win64; x64) AppleWebKit/537.36 (KHTML, like Gecko) Chrome/109.0.0.0 Safari/537.36 Edg/109.0.1518.78" etag="hGF2uT2eLWHLcqx6mcTl" version="20.8.18" type="github" pages="2">
  <diagram name="Login" id="74e2e168-ea6b-b213-b513-2b3c1d86103e">
    <mxGraphModel dx="1373" dy="774" grid="1" gridSize="10" guides="1" tooltips="1" connect="1" arrows="1" fold="1" page="1" pageScale="1" pageWidth="1100" pageHeight="850" background="none" math="0" shadow="0">
      <root>
        <mxCell id="0" />
        <mxCell id="1" parent="0" />
        <mxCell id="oz9p4cTDpWmSpgmov__A-6" style="edgeStyle=orthogonalEdgeStyle;rounded=0;orthogonalLoop=1;jettySize=auto;html=1;" parent="1" source="oz9p4cTDpWmSpgmov__A-2" target="oz9p4cTDpWmSpgmov__A-4" edge="1">
          <mxGeometry relative="1" as="geometry" />
        </mxCell>
        <mxCell id="oz9p4cTDpWmSpgmov__A-2" value="Página Principal (primer vista)" style="strokeWidth=2;html=1;shape=mxgraph.flowchart.start_2;whiteSpace=wrap;" parent="1" vertex="1">
          <mxGeometry x="460" y="27.5" width="100" height="100" as="geometry" />
        </mxCell>
        <mxCell id="oz9p4cTDpWmSpgmov__A-13" style="edgeStyle=orthogonalEdgeStyle;rounded=0;orthogonalLoop=1;jettySize=auto;html=1;" parent="1" source="oz9p4cTDpWmSpgmov__A-4" target="oz9p4cTDpWmSpgmov__A-9" edge="1">
          <mxGeometry relative="1" as="geometry" />
        </mxCell>
        <mxCell id="oz9p4cTDpWmSpgmov__A-14" value="" style="edgeStyle=orthogonalEdgeStyle;rounded=0;orthogonalLoop=1;jettySize=auto;html=1;" parent="1" source="oz9p4cTDpWmSpgmov__A-4" target="oz9p4cTDpWmSpgmov__A-12" edge="1">
          <mxGeometry relative="1" as="geometry" />
        </mxCell>
        <mxCell id="oz9p4cTDpWmSpgmov__A-4" value="¿Ya tiene una cuenta?&amp;nbsp;" style="strokeWidth=2;html=1;shape=mxgraph.flowchart.decision;whiteSpace=wrap;" parent="1" vertex="1">
          <mxGeometry x="460" y="210" width="100" height="100" as="geometry" />
        </mxCell>
        <mxCell id="oz9p4cTDpWmSpgmov__A-7" value="Click Btn Iniciar Sesión" style="text;html=1;strokeColor=none;fillColor=none;align=center;verticalAlign=middle;whiteSpace=wrap;rounded=0;" parent="1" vertex="1">
          <mxGeometry x="420" y="140" width="80" height="50" as="geometry" />
        </mxCell>
        <mxCell id="oz9p4cTDpWmSpgmov__A-20" value="" style="edgeStyle=orthogonalEdgeStyle;rounded=0;orthogonalLoop=1;jettySize=auto;html=1;" parent="1" source="oz9p4cTDpWmSpgmov__A-9" target="oz9p4cTDpWmSpgmov__A-19" edge="1">
          <mxGeometry relative="1" as="geometry" />
        </mxCell>
        <mxCell id="oz9p4cTDpWmSpgmov__A-9" value="Proceso para crear una cuenta" style="whiteSpace=wrap;html=1;strokeWidth=2;" parent="1" vertex="1">
          <mxGeometry x="250" y="230" width="120" height="60" as="geometry" />
        </mxCell>
        <mxCell id="oz9p4cTDpWmSpgmov__A-10" value="NO" style="text;html=1;strokeColor=none;fillColor=none;align=center;verticalAlign=middle;whiteSpace=wrap;rounded=0;" parent="1" vertex="1">
          <mxGeometry x="390" y="230" width="60" height="30" as="geometry" />
        </mxCell>
        <mxCell id="oz9p4cTDpWmSpgmov__A-11" value="SI" style="text;html=1;strokeColor=none;fillColor=none;align=center;verticalAlign=middle;whiteSpace=wrap;rounded=0;" parent="1" vertex="1">
          <mxGeometry x="570" y="230" width="60" height="30" as="geometry" />
        </mxCell>
        <mxCell id="oz9p4cTDpWmSpgmov__A-38" style="edgeStyle=orthogonalEdgeStyle;rounded=0;orthogonalLoop=1;jettySize=auto;html=1;exitX=0.5;exitY=1;exitDx=0;exitDy=0;entryX=0.5;entryY=0;entryDx=0;entryDy=0;" parent="1" source="oz9p4cTDpWmSpgmov__A-12" target="oz9p4cTDpWmSpgmov__A-34" edge="1">
          <mxGeometry relative="1" as="geometry" />
        </mxCell>
        <mxCell id="oz9p4cTDpWmSpgmov__A-12" value="Proceso para ingresar a la cuenta" style="whiteSpace=wrap;html=1;strokeWidth=2;" parent="1" vertex="1">
          <mxGeometry x="790" y="230" width="120" height="60" as="geometry" />
        </mxCell>
        <mxCell id="oz9p4cTDpWmSpgmov__A-15" value="Vista Formulario nueva cuenta, configuración de parámetros para el rastreo de costos" style="shape=note;whiteSpace=wrap;html=1;backgroundOutline=1;darkOpacity=0.05;" parent="1" vertex="1">
          <mxGeometry x="235" y="480" width="110" height="150" as="geometry" />
        </mxCell>
        <mxCell id="oz9p4cTDpWmSpgmov__A-16" value="" style="strokeWidth=2;html=1;shape=mxgraph.flowchart.annotation_2;align=left;labelPosition=right;pointerEvents=1;rotation=90;" parent="1" vertex="1">
          <mxGeometry x="265" y="410" width="50" height="125" as="geometry" />
        </mxCell>
        <mxCell id="oz9p4cTDpWmSpgmov__A-17" value="Azure SQL Database" style="strokeWidth=2;html=1;shape=mxgraph.flowchart.database;whiteSpace=wrap;" parent="1" vertex="1">
          <mxGeometry x="480" y="345" width="110" height="115" as="geometry" />
        </mxCell>
        <mxCell id="oz9p4cTDpWmSpgmov__A-23" style="edgeStyle=orthogonalEdgeStyle;rounded=0;orthogonalLoop=1;jettySize=auto;html=1;exitX=0;exitY=0.5;exitDx=0;exitDy=0;entryX=0;entryY=0.5;entryDx=0;entryDy=0;" parent="1" source="oz9p4cTDpWmSpgmov__A-19" target="oz9p4cTDpWmSpgmov__A-9" edge="1">
          <mxGeometry relative="1" as="geometry" />
        </mxCell>
        <mxCell id="oz9p4cTDpWmSpgmov__A-43" style="edgeStyle=orthogonalEdgeStyle;rounded=0;orthogonalLoop=1;jettySize=auto;html=1;exitX=1;exitY=0.5;exitDx=0;exitDy=0;entryX=0;entryY=0.5;entryDx=0;entryDy=0;entryPerimeter=0;" parent="1" source="oz9p4cTDpWmSpgmov__A-19" target="oz9p4cTDpWmSpgmov__A-17" edge="1">
          <mxGeometry relative="1" as="geometry" />
        </mxCell>
        <mxCell id="oz9p4cTDpWmSpgmov__A-47" style="edgeStyle=orthogonalEdgeStyle;rounded=0;orthogonalLoop=1;jettySize=auto;html=1;exitX=1;exitY=0.5;exitDx=0;exitDy=0;entryX=0;entryY=0.5;entryDx=0;entryDy=0;entryPerimeter=0;" parent="1" source="oz9p4cTDpWmSpgmov__A-19" target="oz9p4cTDpWmSpgmov__A-46" edge="1">
          <mxGeometry relative="1" as="geometry" />
        </mxCell>
        <mxCell id="oz9p4cTDpWmSpgmov__A-19" value="¿Registro exitoso?" style="rhombus;whiteSpace=wrap;html=1;strokeWidth=2;" parent="1" vertex="1">
          <mxGeometry x="240" y="352.5" width="100" height="100" as="geometry" />
        </mxCell>
        <mxCell id="oz9p4cTDpWmSpgmov__A-22" value="SI" style="text;html=1;strokeColor=none;fillColor=none;align=center;verticalAlign=middle;whiteSpace=wrap;rounded=0;" parent="1" vertex="1">
          <mxGeometry x="370" y="375" width="60" height="30" as="geometry" />
        </mxCell>
        <mxCell id="oz9p4cTDpWmSpgmov__A-24" value="NO" style="text;html=1;strokeColor=none;fillColor=none;align=center;verticalAlign=middle;whiteSpace=wrap;rounded=0;" parent="1" vertex="1">
          <mxGeometry x="150" y="310" width="60" height="30" as="geometry" />
        </mxCell>
        <mxCell id="oz9p4cTDpWmSpgmov__A-25" value="Vista Home Page" style="shape=note;whiteSpace=wrap;html=1;backgroundOutline=1;darkOpacity=0.05;" parent="1" vertex="1">
          <mxGeometry x="590" y="27.5" width="80" height="100" as="geometry" />
        </mxCell>
        <mxCell id="oz9p4cTDpWmSpgmov__A-26" value="" style="strokeWidth=2;html=1;shape=mxgraph.flowchart.annotation_2;align=left;labelPosition=right;pointerEvents=1;" parent="1" vertex="1">
          <mxGeometry x="560" y="15" width="50" height="125" as="geometry" />
        </mxCell>
        <mxCell id="oz9p4cTDpWmSpgmov__A-27" value="Vista Formulario de inicio de sesión" style="shape=note;whiteSpace=wrap;html=1;backgroundOutline=1;darkOpacity=0.05;" parent="1" vertex="1">
          <mxGeometry x="970" y="202.5" width="80" height="100" as="geometry" />
        </mxCell>
        <mxCell id="oz9p4cTDpWmSpgmov__A-28" value="" style="strokeWidth=2;html=1;shape=mxgraph.flowchart.annotation_2;align=left;labelPosition=right;pointerEvents=1;" parent="1" vertex="1">
          <mxGeometry x="920" y="190" width="80" height="125" as="geometry" />
        </mxCell>
        <mxCell id="oz9p4cTDpWmSpgmov__A-48" style="edgeStyle=orthogonalEdgeStyle;rounded=0;orthogonalLoop=1;jettySize=auto;html=1;exitX=0.5;exitY=1;exitDx=0;exitDy=0;entryX=1;entryY=0.5;entryDx=0;entryDy=0;entryPerimeter=0;" parent="1" source="oz9p4cTDpWmSpgmov__A-34" target="oz9p4cTDpWmSpgmov__A-46" edge="1">
          <mxGeometry relative="1" as="geometry" />
        </mxCell>
        <mxCell id="oz9p4cTDpWmSpgmov__A-50" style="edgeStyle=orthogonalEdgeStyle;rounded=0;orthogonalLoop=1;jettySize=auto;html=1;exitX=1;exitY=0.5;exitDx=0;exitDy=0;entryX=0.75;entryY=1;entryDx=0;entryDy=0;" parent="1" source="oz9p4cTDpWmSpgmov__A-34" target="oz9p4cTDpWmSpgmov__A-12" edge="1">
          <mxGeometry relative="1" as="geometry" />
        </mxCell>
        <mxCell id="oz9p4cTDpWmSpgmov__A-34" value="¿Ingreso exitoso?" style="rhombus;whiteSpace=wrap;html=1;strokeWidth=2;" parent="1" vertex="1">
          <mxGeometry x="790" y="390" width="110" height="100" as="geometry" />
        </mxCell>
        <mxCell id="oz9p4cTDpWmSpgmov__A-36" value="" style="endArrow=classic;html=1;rounded=0;entryX=-0.033;entryY=0.867;entryDx=0;entryDy=0;entryPerimeter=0;" parent="1" source="oz9p4cTDpWmSpgmov__A-17" target="oz9p4cTDpWmSpgmov__A-12" edge="1">
          <mxGeometry relative="1" as="geometry">
            <mxPoint x="620" y="570" as="sourcePoint" />
            <mxPoint x="780" y="290" as="targetPoint" />
          </mxGeometry>
        </mxCell>
        <mxCell id="oz9p4cTDpWmSpgmov__A-37" value="" style="shape=message;html=1;outlineConnect=0;" parent="oz9p4cTDpWmSpgmov__A-36" vertex="1">
          <mxGeometry width="20" height="14" relative="1" as="geometry">
            <mxPoint x="-10" y="-7" as="offset" />
          </mxGeometry>
        </mxCell>
        <mxCell id="oz9p4cTDpWmSpgmov__A-46" value="Fin del Proceso" style="strokeWidth=2;html=1;shape=mxgraph.flowchart.terminator;whiteSpace=wrap;" parent="1" vertex="1">
          <mxGeometry x="500" y="540" width="110" height="60" as="geometry" />
        </mxCell>
        <mxCell id="oz9p4cTDpWmSpgmov__A-49" value="SI" style="text;html=1;strokeColor=none;fillColor=none;align=center;verticalAlign=middle;whiteSpace=wrap;rounded=0;" parent="1" vertex="1">
          <mxGeometry x="790" y="520" width="60" height="30" as="geometry" />
        </mxCell>
        <mxCell id="oz9p4cTDpWmSpgmov__A-51" value="NO" style="text;html=1;strokeColor=none;fillColor=none;align=center;verticalAlign=middle;whiteSpace=wrap;rounded=0;" parent="1" vertex="1">
          <mxGeometry x="910" y="340" width="60" height="30" as="geometry" />
        </mxCell>
        <mxCell id="oz9p4cTDpWmSpgmov__A-52" value="SI" style="text;html=1;strokeColor=none;fillColor=none;align=center;verticalAlign=middle;whiteSpace=wrap;rounded=0;" parent="1" vertex="1">
          <mxGeometry x="420" y="480" width="60" height="30" as="geometry" />
        </mxCell>
        <mxCell id="oz9p4cTDpWmSpgmov__A-53" value="Vista Principal del Usuario registrado" style="shape=note;whiteSpace=wrap;html=1;backgroundOutline=1;darkOpacity=0.05;" parent="1" vertex="1">
          <mxGeometry x="515" y="640" width="90" height="120" as="geometry" />
        </mxCell>
        <mxCell id="oz9p4cTDpWmSpgmov__A-54" value="" style="strokeWidth=2;html=1;shape=mxgraph.flowchart.annotation_2;align=left;labelPosition=right;pointerEvents=1;rotation=90;" parent="1" vertex="1">
          <mxGeometry x="535" y="570" width="50" height="125" as="geometry" />
        </mxCell>
        <mxCell id="oz9p4cTDpWmSpgmov__A-56" value="&lt;h1&gt;Diagrama de Flujo: Login&lt;/h1&gt;&lt;p&gt;Este diagrama de flujo representa el flujo que debe seguir un usuario para crear una cuenta o ingresar a ella.&lt;/p&gt;" style="text;html=1;strokeColor=none;fillColor=none;spacing=5;spacingTop=-20;whiteSpace=wrap;overflow=hidden;rounded=0;" parent="1" vertex="1">
          <mxGeometry x="20" y="20" width="190" height="150" as="geometry" />
        </mxCell>
      </root>
    </mxGraphModel>
  </diagram>
  <diagram name="Cost Records" id="LuNY3zVcoNnIHmfbvWIO">
    <mxGraphModel dx="1373" dy="774" grid="1" gridSize="10" guides="1" tooltips="1" connect="1" arrows="1" fold="1" page="1" pageScale="1" pageWidth="1100" pageHeight="850" background="none" math="0" shadow="0">
      <root>
        <mxCell id="wQUb9wuHpGqpkneJC18S-0" />
        <mxCell id="wQUb9wuHpGqpkneJC18S-1" parent="wQUb9wuHpGqpkneJC18S-0" />
        <mxCell id="Z6G_dmUMwywwR1LI1Rg2-1" style="edgeStyle=orthogonalEdgeStyle;rounded=0;orthogonalLoop=1;jettySize=auto;html=1;exitX=0.5;exitY=1;exitDx=0;exitDy=0;exitPerimeter=0;entryX=0;entryY=0.5;entryDx=0;entryDy=0;" edge="1" parent="wQUb9wuHpGqpkneJC18S-1" source="wQUb9wuHpGqpkneJC18S-3" target="Z6G_dmUMwywwR1LI1Rg2-0">
          <mxGeometry relative="1" as="geometry" />
        </mxCell>
        <mxCell id="wQUb9wuHpGqpkneJC18S-3" value="Página Principal del usuario" style="strokeWidth=2;html=1;shape=mxgraph.flowchart.start_2;whiteSpace=wrap;" vertex="1" parent="wQUb9wuHpGqpkneJC18S-1">
          <mxGeometry x="460" y="27.5" width="100" height="100" as="geometry" />
        </mxCell>
        <mxCell id="wQUb9wuHpGqpkneJC18S-23" value="Vista Home para Usuario conectado" style="shape=note;whiteSpace=wrap;html=1;backgroundOutline=1;darkOpacity=0.05;" vertex="1" parent="wQUb9wuHpGqpkneJC18S-1">
          <mxGeometry x="590" y="27.5" width="80" height="100" as="geometry" />
        </mxCell>
        <mxCell id="wQUb9wuHpGqpkneJC18S-24" value="" style="strokeWidth=2;html=1;shape=mxgraph.flowchart.annotation_2;align=left;labelPosition=right;pointerEvents=1;" vertex="1" parent="wQUb9wuHpGqpkneJC18S-1">
          <mxGeometry x="560" y="15" width="50" height="125" as="geometry" />
        </mxCell>
        <mxCell id="wQUb9wuHpGqpkneJC18S-38" value="&lt;h1&gt;Diagrama de Flujo: Login&lt;/h1&gt;&lt;p&gt;Este diagrama de flujo representa el flujo que debe seguir un usuario para crear una cuenta o ingresar a ella.&lt;/p&gt;" style="text;html=1;strokeColor=none;fillColor=none;spacing=5;spacingTop=-20;whiteSpace=wrap;overflow=hidden;rounded=0;" vertex="1" parent="wQUb9wuHpGqpkneJC18S-1">
          <mxGeometry x="20" y="20" width="190" height="150" as="geometry" />
        </mxCell>
        <mxCell id="Z6G_dmUMwywwR1LI1Rg2-5" style="edgeStyle=orthogonalEdgeStyle;rounded=0;orthogonalLoop=1;jettySize=auto;html=1;exitX=1;exitY=0.5;exitDx=0;exitDy=0;entryX=0;entryY=0.5;entryDx=0;entryDy=0;" edge="1" parent="wQUb9wuHpGqpkneJC18S-1" source="Z6G_dmUMwywwR1LI1Rg2-0" target="Z6G_dmUMwywwR1LI1Rg2-6">
          <mxGeometry relative="1" as="geometry">
            <mxPoint x="380" y="310" as="targetPoint" />
          </mxGeometry>
        </mxCell>
        <mxCell id="Z6G_dmUMwywwR1LI1Rg2-0" value="Proceso para registrar una nueva salida de dinero (accionar botón &quot;salidas&quot;)" style="rounded=1;whiteSpace=wrap;html=1;absoluteArcSize=1;arcSize=14;strokeWidth=2;" vertex="1" parent="wQUb9wuHpGqpkneJC18S-1">
          <mxGeometry x="110" y="230" width="180" height="100" as="geometry" />
        </mxCell>
        <mxCell id="Z6G_dmUMwywwR1LI1Rg2-2" value="Vista Formulario de Registro de Costos" style="shape=note;whiteSpace=wrap;html=1;backgroundOutline=1;darkOpacity=0.05;" vertex="1" parent="wQUb9wuHpGqpkneJC18S-1">
          <mxGeometry x="150" y="370" width="90" height="110" as="geometry" />
        </mxCell>
        <mxCell id="Z6G_dmUMwywwR1LI1Rg2-3" value="" style="strokeWidth=2;html=1;shape=mxgraph.flowchart.annotation_2;align=left;labelPosition=right;pointerEvents=1;rotation=90;" vertex="1" parent="wQUb9wuHpGqpkneJC18S-1">
          <mxGeometry x="170" y="300" width="50" height="125" as="geometry" />
        </mxCell>
        <mxCell id="Z6G_dmUMwywwR1LI1Rg2-8" value="" style="edgeStyle=orthogonalEdgeStyle;rounded=0;orthogonalLoop=1;jettySize=auto;html=1;" edge="1" parent="wQUb9wuHpGqpkneJC18S-1" source="Z6G_dmUMwywwR1LI1Rg2-6" target="Z6G_dmUMwywwR1LI1Rg2-7">
          <mxGeometry relative="1" as="geometry" />
        </mxCell>
        <mxCell id="Z6G_dmUMwywwR1LI1Rg2-6" value="&lt;b&gt;Registros obligatorios:&lt;/b&gt;&lt;br&gt;1. Fecha&lt;br&gt;2. Cultivo ID&lt;br&gt;3. Proceso&lt;br&gt;4. Valor de la transacción&lt;br&gt;5. Descripción de la transacción&lt;br&gt;&lt;br&gt;&lt;b&gt;Registro Opcional:&lt;/b&gt;&lt;br&gt;6. Proveedor" style="shape=parallelogram;html=1;strokeWidth=2;perimeter=parallelogramPerimeter;whiteSpace=wrap;rounded=1;arcSize=12;size=0.23;" vertex="1" parent="wQUb9wuHpGqpkneJC18S-1">
          <mxGeometry x="350" y="220" width="290" height="140" as="geometry" />
        </mxCell>
        <mxCell id="KljkPcZYea-xxs5Y8ib2-3" style="edgeStyle=orthogonalEdgeStyle;rounded=0;orthogonalLoop=1;jettySize=auto;html=1;exitX=0;exitY=0.5;exitDx=0;exitDy=0;entryX=0;entryY=0.75;entryDx=0;entryDy=0;" edge="1" parent="wQUb9wuHpGqpkneJC18S-1" source="Z6G_dmUMwywwR1LI1Rg2-7" target="Z6G_dmUMwywwR1LI1Rg2-0">
          <mxGeometry relative="1" as="geometry" />
        </mxCell>
        <mxCell id="KljkPcZYea-xxs5Y8ib2-5" style="edgeStyle=orthogonalEdgeStyle;rounded=0;orthogonalLoop=1;jettySize=auto;html=1;exitX=1;exitY=0.5;exitDx=0;exitDy=0;entryX=0;entryY=0.5;entryDx=0;entryDy=0;" edge="1" parent="wQUb9wuHpGqpkneJC18S-1" source="Z6G_dmUMwywwR1LI1Rg2-7" target="2M8Opz-kSDqsGLRn786k-2">
          <mxGeometry relative="1" as="geometry">
            <mxPoint x="740" y="495" as="targetPoint" />
          </mxGeometry>
        </mxCell>
        <mxCell id="Z6G_dmUMwywwR1LI1Rg2-7" value="¿Registros Obligatorios diligenciados correctamente?" style="rhombus;whiteSpace=wrap;html=1;strokeWidth=2;rounded=1;arcSize=12;" vertex="1" parent="wQUb9wuHpGqpkneJC18S-1">
          <mxGeometry x="418.75" y="400" width="152.5" height="190" as="geometry" />
        </mxCell>
        <mxCell id="KljkPcZYea-xxs5Y8ib2-0" value="No" style="text;html=1;strokeColor=none;fillColor=none;align=center;verticalAlign=middle;whiteSpace=wrap;rounded=0;" vertex="1" parent="wQUb9wuHpGqpkneJC18S-1">
          <mxGeometry x="200" y="500" width="60" height="30" as="geometry" />
        </mxCell>
        <mxCell id="KljkPcZYea-xxs5Y8ib2-2" value="SI" style="text;html=1;strokeColor=none;fillColor=none;align=center;verticalAlign=middle;whiteSpace=wrap;rounded=0;" vertex="1" parent="wQUb9wuHpGqpkneJC18S-1">
          <mxGeometry x="590" y="495" width="60" height="30" as="geometry" />
        </mxCell>
        <mxCell id="KljkPcZYea-xxs5Y8ib2-4" value="Azure SQL Databases" style="shape=cylinder3;whiteSpace=wrap;html=1;boundedLbl=1;backgroundOutline=1;size=15;" vertex="1" parent="wQUb9wuHpGqpkneJC18S-1">
          <mxGeometry x="940" y="290" width="120" height="110" as="geometry" />
        </mxCell>
        <mxCell id="KljkPcZYea-xxs5Y8ib2-6" value="Fin del Flujo" style="strokeWidth=2;html=1;shape=mxgraph.flowchart.terminator;whiteSpace=wrap;" vertex="1" parent="wQUb9wuHpGqpkneJC18S-1">
          <mxGeometry x="930" y="700" width="100" height="60" as="geometry" />
        </mxCell>
        <mxCell id="KljkPcZYea-xxs5Y8ib2-10" value="Lista de ID cultivos activos" style="text;html=1;strokeColor=none;fillColor=none;align=center;verticalAlign=middle;whiteSpace=wrap;rounded=0;" vertex="1" parent="wQUb9wuHpGqpkneJC18S-1">
          <mxGeometry x="740" y="320" width="60" height="30" as="geometry" />
        </mxCell>
        <mxCell id="2M8Opz-kSDqsGLRn786k-0" value="" style="endArrow=classic;html=1;rounded=0;exitX=0.5;exitY=0;exitDx=0;exitDy=0;exitPerimeter=0;entryX=1;entryY=0.5;entryDx=0;entryDy=0;" edge="1" parent="wQUb9wuHpGqpkneJC18S-1" source="KljkPcZYea-xxs5Y8ib2-4" target="Z6G_dmUMwywwR1LI1Rg2-6">
          <mxGeometry relative="1" as="geometry">
            <mxPoint x="590" y="376" as="sourcePoint" />
            <mxPoint x="786" y="282" as="targetPoint" />
          </mxGeometry>
        </mxCell>
        <mxCell id="2M8Opz-kSDqsGLRn786k-1" value="" style="shape=message;html=1;outlineConnect=0;" vertex="1" parent="2M8Opz-kSDqsGLRn786k-0">
          <mxGeometry width="20" height="14" relative="1" as="geometry">
            <mxPoint x="-10" y="-7" as="offset" />
          </mxGeometry>
        </mxCell>
        <mxCell id="2M8Opz-kSDqsGLRn786k-4" value="" style="edgeStyle=orthogonalEdgeStyle;rounded=0;orthogonalLoop=1;jettySize=auto;html=1;" edge="1" parent="wQUb9wuHpGqpkneJC18S-1" source="2M8Opz-kSDqsGLRn786k-2" target="2M8Opz-kSDqsGLRn786k-3">
          <mxGeometry relative="1" as="geometry" />
        </mxCell>
        <mxCell id="2M8Opz-kSDqsGLRn786k-2" value="Proceso Guardar nuevo registro (accionar botón &quot;guardar&quot;)" style="rounded=1;whiteSpace=wrap;html=1;absoluteArcSize=1;arcSize=14;strokeWidth=2;" vertex="1" parent="wQUb9wuHpGqpkneJC18S-1">
          <mxGeometry x="680" y="445" width="100" height="100" as="geometry" />
        </mxCell>
        <mxCell id="2M8Opz-kSDqsGLRn786k-14" style="edgeStyle=orthogonalEdgeStyle;rounded=0;orthogonalLoop=1;jettySize=auto;html=1;exitX=0;exitY=0.5;exitDx=0;exitDy=0;entryX=0;entryY=1;entryDx=0;entryDy=0;" edge="1" parent="wQUb9wuHpGqpkneJC18S-1" source="2M8Opz-kSDqsGLRn786k-3" target="Z6G_dmUMwywwR1LI1Rg2-6">
          <mxGeometry relative="1" as="geometry" />
        </mxCell>
        <mxCell id="2M8Opz-kSDqsGLRn786k-16" style="edgeStyle=orthogonalEdgeStyle;rounded=0;orthogonalLoop=1;jettySize=auto;html=1;exitX=1;exitY=0.5;exitDx=0;exitDy=0;entryX=0.5;entryY=0;entryDx=0;entryDy=0;entryPerimeter=0;" edge="1" parent="wQUb9wuHpGqpkneJC18S-1" source="2M8Opz-kSDqsGLRn786k-3" target="KljkPcZYea-xxs5Y8ib2-6">
          <mxGeometry relative="1" as="geometry" />
        </mxCell>
        <mxCell id="2M8Opz-kSDqsGLRn786k-3" value="¿Registro Correctamente Guardado?" style="rhombus;whiteSpace=wrap;html=1;rounded=1;arcSize=14;strokeWidth=2;" vertex="1" parent="wQUb9wuHpGqpkneJC18S-1">
          <mxGeometry x="670" y="570" width="120" height="110" as="geometry" />
        </mxCell>
        <mxCell id="2M8Opz-kSDqsGLRn786k-5" value="" style="endArrow=classic;html=1;rounded=0;exitX=1;exitY=0;exitDx=0;exitDy=0;entryX=0.5;entryY=1;entryDx=0;entryDy=0;entryPerimeter=0;" edge="1" parent="wQUb9wuHpGqpkneJC18S-1" source="2M8Opz-kSDqsGLRn786k-2" target="KljkPcZYea-xxs5Y8ib2-4">
          <mxGeometry relative="1" as="geometry">
            <mxPoint x="983" y="430" as="sourcePoint" />
            <mxPoint x="590" y="430" as="targetPoint" />
          </mxGeometry>
        </mxCell>
        <mxCell id="2M8Opz-kSDqsGLRn786k-6" value="" style="shape=message;html=1;outlineConnect=0;" vertex="1" parent="2M8Opz-kSDqsGLRn786k-5">
          <mxGeometry width="20" height="14" relative="1" as="geometry">
            <mxPoint x="-10" y="-7" as="offset" />
          </mxGeometry>
        </mxCell>
        <mxCell id="2M8Opz-kSDqsGLRn786k-7" value="Guardar Registros en DB" style="text;html=1;strokeColor=none;fillColor=none;align=center;verticalAlign=middle;whiteSpace=wrap;rounded=0;" vertex="1" parent="wQUb9wuHpGqpkneJC18S-1">
          <mxGeometry x="850" y="370" width="60" height="30" as="geometry" />
        </mxCell>
        <mxCell id="2M8Opz-kSDqsGLRn786k-9" value="SI" style="text;html=1;strokeColor=none;fillColor=none;align=center;verticalAlign=middle;whiteSpace=wrap;rounded=0;" vertex="1" parent="wQUb9wuHpGqpkneJC18S-1">
          <mxGeometry x="870" y="590" width="60" height="30" as="geometry" />
        </mxCell>
        <mxCell id="2M8Opz-kSDqsGLRn786k-10" value="Vista Home para Usuario conectado" style="shape=note;whiteSpace=wrap;html=1;backgroundOutline=1;darkOpacity=0.05;" vertex="1" parent="wQUb9wuHpGqpkneJC18S-1">
          <mxGeometry x="820" y="680" width="80" height="100" as="geometry" />
        </mxCell>
        <mxCell id="2M8Opz-kSDqsGLRn786k-11" value="" style="strokeWidth=2;html=1;shape=mxgraph.flowchart.annotation_2;align=left;labelPosition=right;pointerEvents=1;rotation=-180;" vertex="1" parent="wQUb9wuHpGqpkneJC18S-1">
          <mxGeometry x="880" y="667.5" width="50" height="125" as="geometry" />
        </mxCell>
        <mxCell id="2M8Opz-kSDqsGLRn786k-15" value="No" style="text;html=1;strokeColor=none;fillColor=none;align=center;verticalAlign=middle;whiteSpace=wrap;rounded=0;" vertex="1" parent="wQUb9wuHpGqpkneJC18S-1">
          <mxGeometry x="470" y="630" width="60" height="30" as="geometry" />
        </mxCell>
      </root>
    </mxGraphModel>
  </diagram>
</mxfile>
